<svg width="22" height="25" viewBox="0 0 22 25" fill="none" xmlns="http://www.w3.org/2000/svg" id="analytics">
<path d="M14.4375 4.5H15.125H19.25H19.9375V5.1875V20.3125V21H19.25H15.125H14.4375V20.3125V5.1875V4.5ZM15.8125 5.875V19.625H18.5625V5.875H15.8125ZM2.0625 8.625H2.75H6.875H7.5625V9.3125V20.3125V21H6.875H2.75H2.0625V20.3125V9.3125V8.625ZM3.4375 10V19.625H6.1875V10H3.4375ZM8.25 12.75H8.9375H13.0625H13.75V13.4375V20.3125V21H13.0625H8.9375H8.25V20.3125V13.4375V12.75ZM9.625 14.125V19.625H12.375V14.125H9.625Z" fill="#4880FF"/>
</svg>
