<svg width="26" height="22" viewBox="0 0 26 22" fill="none" xmlns="http://www.w3.org/2000/svg" id="camera">
<path fill-rule="evenodd" clip-rule="evenodd" d="M24.7813 21.2763H1.21873C0.545489 21.2763 0 20.7487 0 20.0977V5.65075C0 5.00002 0.545489 4.47208 1.21873 4.47208H6.42384L8.37574 1.31573C8.59832 1.03182 8.94704 0.845703 9.34378 0.845703H16.6562C16.9986 0.845703 17.3065 0.98343 17.5283 1.20292L17.5291 1.20178L19.5988 4.47208H24.7813C25.4545 4.47208 26 5.00002 26 5.65075V20.0977C26 20.7487 25.4545 21.2763 24.7813 21.2763ZM13.0003 6.88966C9.44469 6.88966 6.5625 9.67745 6.5625 13.1158C6.5625 16.5545 9.44469 19.3419 13.0003 19.3419C16.5558 19.3419 19.438 16.5545 19.438 13.1158C19.438 9.67745 16.5558 6.88966 13.0003 6.88966ZM9.27441 13.1158C9.27441 15.1056 10.9426 16.7191 13.0001 16.7191C15.0579 16.7191 16.7258 15.1056 16.7258 13.1158C16.7258 11.1256 15.0579 9.51256 13.0001 9.51256C10.9426 9.51256 9.27441 11.1256 9.27441 13.1158Z" fill="#414141"/>
</svg>
