<svg width="22" height="25" viewBox="0 0 22 25" fill="none" xmlns="http://www.w3.org/2000/svg" id="clients">
<path d="M2.57812 7.76562C3.38021 6.96354 4.35417 6.5625 5.5 6.5625C6.64583 6.5625 7.61979 6.96354 8.42188 7.76562C9.22396 8.56771 9.625 9.54167 9.625 10.6875C9.625 12.0911 9.05208 13.2083 7.90625 14.0391C8.96615 14.5547 9.76823 15.2995 10.3125 16.2734C10.8568 15.2995 11.6589 14.5547 12.7188 14.0391C11.5729 13.2083 11 12.0911 11 10.6875C11 9.54167 11.401 8.56771 12.2031 7.76562C13.0052 6.96354 13.9792 6.5625 15.125 6.5625C16.2708 6.5625 17.2448 6.96354 18.0469 7.76562C18.849 8.56771 19.25 9.54167 19.25 10.6875C19.25 12.0911 18.6771 13.2083 17.5312 14.0391C18.4766 14.4974 19.2214 15.1706 19.7656 16.0586C20.3385 16.918 20.625 17.8776 20.625 18.9375H19.25C19.25 17.7917 18.849 16.8177 18.0469 16.0156C17.2448 15.2135 16.2708 14.8125 15.125 14.8125C13.9792 14.8125 13.0052 15.2135 12.2031 16.0156C11.401 16.8177 11 17.7917 11 18.9375H9.625C9.625 17.7917 9.22396 16.8177 8.42188 16.0156C7.61979 15.2135 6.64583 14.8125 5.5 14.8125C4.35417 14.8125 3.38021 15.2135 2.57812 16.0156C1.77604 16.8177 1.375 17.7917 1.375 18.9375H0C0 17.8776 0.272135 16.918 0.816406 16.0586C1.38932 15.1706 2.14844 14.4974 3.09375 14.0391C1.94792 13.2083 1.375 12.0911 1.375 10.6875C1.375 9.54167 1.77604 8.56771 2.57812 7.76562ZM7.43359 8.75391C6.91797 8.20964 6.27344 7.9375 5.5 7.9375C4.72656 7.9375 4.06771 8.20964 3.52344 8.75391C3.00781 9.26953 2.75 9.91406 2.75 10.6875C2.75 11.4609 3.00781 12.1198 3.52344 12.6641C4.06771 13.1797 4.72656 13.4375 5.5 13.4375C6.27344 13.4375 6.91797 13.1797 7.43359 12.6641C7.97786 12.1198 8.25 11.4609 8.25 10.6875C8.25 9.91406 7.97786 9.26953 7.43359 8.75391ZM17.0586 8.75391C16.543 8.20964 15.8984 7.9375 15.125 7.9375C14.3516 7.9375 13.6927 8.20964 13.1484 8.75391C12.6328 9.26953 12.375 9.91406 12.375 10.6875C12.375 11.4609 12.6328 12.1198 13.1484 12.6641C13.6927 13.1797 14.3516 13.4375 15.125 13.4375C15.8984 13.4375 16.543 13.1797 17.0586 12.6641C17.6029 12.1198 17.875 11.4609 17.875 10.6875C17.875 9.91406 17.6029 9.26953 17.0586 8.75391Z" fill="#4880FF"/>
</svg>
