<svg width="24" height="24" viewBox="0 0 24 24" fill="none" xmlns="http://www.w3.org/2000/svg" id="delete">
<path d="M6.02897 6.04439V17.7128C6.02885 18.0461 6.09439 18.376 6.22185 18.6839C6.34931 18.9918 6.53619 19.2715 6.77181 19.5072C7.00743 19.7428 7.28718 19.9297 7.59505 20.0571C7.90293 20.1846 8.2329 20.2501 8.56612 20.25H15.6694C16.342 20.25 16.9871 19.9828 17.4628 19.5072C17.9384 19.0315 18.2056 18.3864 18.2056 17.7138V6.04346M4 6.04439H20.2355" stroke="black" stroke-width="1.2" stroke-linecap="round" stroke-linejoin="round"/>
<path d="M9.07336 6.04439V4.52173C9.07312 4.32175 9.11234 4.12368 9.18879 3.93889C9.26523 3.75409 9.3774 3.5862 9.51885 3.44483C9.6603 3.30346 9.82826 3.1914 10.0131 3.11507C10.198 3.03874 10.396 2.99963 10.596 3H13.6395C13.8395 2.99963 14.0376 3.03874 14.2224 3.11507C14.4072 3.1914 14.5752 3.30346 14.7167 3.44483C14.8581 3.5862 14.9703 3.75409 15.0467 3.93889C15.1232 4.12368 15.1624 4.32175 15.1621 4.52173V6.04439M10.0888 16.2797V11.2082M14.1477 16.2797V11.2082" stroke="black" stroke-width="1.2" stroke-linecap="round" stroke-linejoin="round"/>
</svg>
