<svg width="22" height="25" viewBox="0 0 22 25" fill="none" xmlns="http://www.w3.org/2000/svg" id="finance">
<path d="M19.207 5.01562L19.7227 7.9375H18.3047L18.0898 6.60547L10.3125 7.9375H2.14844L19.207 5.01562ZM1.375 8.625H2.0625H3.09375H19.9375H20.625V9.3125V18.9375V19.625H19.9375H2.0625H1.375V18.9375V10.3438V9.3125V8.625ZM4.76953 10C4.79818 10.1432 4.8125 10.2578 4.8125 10.3438C4.8125 10.8307 4.64062 11.2461 4.29688 11.5898C3.98177 11.9049 3.58073 12.0625 3.09375 12.0625C3.00781 12.0625 2.89323 12.0482 2.75 12.0195V16.2305C2.89323 16.2018 3.00781 16.1875 3.09375 16.1875C3.58073 16.1875 3.98177 16.3594 4.29688 16.7031C4.64062 17.0182 4.8125 17.4193 4.8125 17.9062C4.8125 17.9922 4.79818 18.1068 4.76953 18.25H17.2305C17.2018 18.1068 17.1875 17.9922 17.1875 17.9062C17.1875 17.4193 17.3451 17.0182 17.6602 16.7031C18.0039 16.3594 18.4193 16.1875 18.9062 16.1875C18.9922 16.1875 19.1068 16.2018 19.25 16.2305V12.0195C19.1068 12.0482 18.9922 12.0625 18.9062 12.0625C18.4193 12.0625 18.0039 11.9049 17.6602 11.5898C17.3451 11.2461 17.1875 10.8307 17.1875 10.3438C17.1875 10.2578 17.2018 10.1432 17.2305 10H4.76953ZM8.55078 11.7188C9.23828 11.0312 10.0547 10.6875 11 10.6875C11.9453 10.6875 12.7474 11.0312 13.4062 11.7188C14.0938 12.3776 14.4375 13.1797 14.4375 14.125C14.4375 15.0703 14.0938 15.8867 13.4062 16.5742C12.7474 17.2331 11.9453 17.5625 11 17.5625C10.0547 17.5625 9.23828 17.2331 8.55078 16.5742C7.89193 15.8867 7.5625 15.0703 7.5625 14.125C7.5625 13.1797 7.89193 12.3776 8.55078 11.7188ZM12.4609 12.6641C12.0599 12.263 11.5729 12.0625 11 12.0625C10.4271 12.0625 9.9401 12.263 9.53906 12.6641C9.13802 13.0651 8.9375 13.5521 8.9375 14.125C8.9375 14.6979 9.13802 15.1849 9.53906 15.5859C9.9401 15.987 10.4271 16.1875 11 16.1875C11.5729 16.1875 12.0599 15.987 12.4609 15.5859C12.862 15.1849 13.0625 14.6979 13.0625 14.125C13.0625 13.5521 12.862 13.0651 12.4609 12.6641Z" fill="#4880FF"/>
</svg>
