<svg width="22" height="25" viewBox="0 0 22 25" fill="none" xmlns="http://www.w3.org/2000/svg" id="logout">
<path d="M10.3125 4.5H11.6875V12.75H10.3125V4.5ZM8.25 4.97266V6.47656C7.01823 6.99219 6.01562 7.82292 5.24219 8.96875C4.4974 10.1146 4.125 11.375 4.125 12.75C4.125 14.6406 4.79818 16.2591 6.14453 17.6055C7.49089 18.9518 9.10938 19.625 11 19.625C12.8906 19.625 14.5091 18.9518 15.8555 17.6055C17.2018 16.2591 17.875 14.6406 17.875 12.75C17.875 11.375 17.4883 10.1146 16.7148 8.96875C15.9701 7.82292 14.9818 6.99219 13.75 6.47656V4.97266C15.3828 5.54557 16.7005 6.54818 17.7031 7.98047C18.7344 9.38411 19.25 10.974 19.25 12.75C19.25 15.013 18.4336 16.9609 16.8008 18.5938C15.1966 20.1979 13.263 21 11 21C8.73698 21 6.78906 20.1979 5.15625 18.5938C3.55208 16.9609 2.75 15.013 2.75 12.75C2.75 10.974 3.2513 9.38411 4.25391 7.98047C5.28516 6.54818 6.61719 5.54557 8.25 4.97266Z" fill="#4880FF"/>
</svg>
