<svg width="22" height="25" viewBox="0 0 22 25" fill="none" xmlns="http://www.w3.org/2000/svg" id="main">
<path d="M5.15625 6.94923C6.78906 5.31641 8.73698 4.50001 11 4.50001C13.263 4.50001 15.1966 5.31641 16.8008 6.94923C18.4336 8.55339 19.25 10.487 19.25 12.75C19.25 15.013 18.4336 16.9609 16.8008 18.5938C15.1966 20.1979 13.263 21 11 21C8.73698 21 6.78906 20.1979 5.15625 18.5938C3.55208 16.9609 2.75 15.013 2.75 12.75C2.75 10.487 3.55208 8.55339 5.15625 6.94923ZM15.8555 7.89454C14.5091 6.54818 12.8906 5.87501 11 5.87501C9.10938 5.87501 7.49089 6.54818 6.14453 7.89454C4.79818 9.24089 4.125 10.8594 4.125 12.75C4.125 14.6406 4.79818 16.2591 6.14453 17.6055C7.49089 18.9518 9.10938 19.625 11 19.625C12.8906 19.625 14.5091 18.9518 15.8555 17.6055C17.2018 16.2591 17.875 14.6406 17.875 12.75C17.875 10.8594 17.2018 9.24089 15.8555 7.89454ZM10.4844 6.77735C10.6276 6.63412 10.7995 6.56251 11 6.56251C11.2005 6.56251 11.3581 6.63412 11.4727 6.77735C11.6159 6.89193 11.6875 7.04949 11.6875 7.25001C11.6875 7.45053 11.6159 7.6224 11.4727 7.76563C11.3581 7.88022 11.2005 7.93751 11 7.93751C10.7995 7.93751 10.6276 7.88022 10.4844 7.76563C10.3698 7.6224 10.3125 7.45053 10.3125 7.25001C10.3125 7.04949 10.3698 6.89193 10.4844 6.77735ZM6.61719 8.41016C6.76042 8.26693 6.91797 8.19532 7.08984 8.19532C7.29036 8.19532 7.46224 8.26693 7.60547 8.41016C7.7487 8.52475 7.82031 8.6823 7.82031 8.88282C7.82031 9.0547 7.7487 9.21225 7.60547 9.35548C7.46224 9.49871 7.29036 9.57032 7.08984 9.57032C6.91797 9.57032 6.76042 9.49871 6.61719 9.35548C6.5026 9.21225 6.44531 9.0547 6.44531 8.88282C6.44531 8.6823 6.5026 8.52475 6.61719 8.41016ZM14.3945 8.3672L15.3828 9.35548L12.332 12.4063C12.3607 12.5208 12.375 12.6354 12.375 12.75C12.375 13.1224 12.2318 13.4518 11.9453 13.7383C11.6875 13.9961 11.3724 14.125 11 14.125C10.6276 14.125 10.2982 13.9961 10.0117 13.7383C9.75391 13.4518 9.625 13.1224 9.625 12.75C9.625 12.3776 9.75391 12.0625 10.0117 11.8047C10.2982 11.5182 10.6276 11.375 11 11.375C11.1146 11.375 11.2292 11.3893 11.3438 11.418L14.3945 8.3672ZM4.98438 12.2774C5.1276 12.1341 5.29948 12.0625 5.5 12.0625C5.70052 12.0625 5.85807 12.1341 5.97266 12.2774C6.11589 12.3919 6.1875 12.5495 6.1875 12.75C6.1875 12.9505 6.11589 13.1224 5.97266 13.2656C5.85807 13.3802 5.70052 13.4375 5.5 13.4375C5.29948 13.4375 5.1276 13.3802 4.98438 13.2656C4.86979 13.1224 4.8125 12.9505 4.8125 12.75C4.8125 12.5495 4.86979 12.3919 4.98438 12.2774ZM15.9844 12.2774C16.1276 12.1341 16.2995 12.0625 16.5 12.0625C16.7005 12.0625 16.8581 12.1341 16.9727 12.2774C17.1159 12.3919 17.1875 12.5495 17.1875 12.75C17.1875 12.9505 17.1159 13.1224 16.9727 13.2656C16.8581 13.3802 16.7005 13.4375 16.5 13.4375C16.2995 13.4375 16.1276 13.3802 15.9844 13.2656C15.8698 13.1224 15.8125 12.9505 15.8125 12.75C15.8125 12.5495 15.8698 12.3919 15.9844 12.2774ZM6.61719 16.1445C6.76042 16.0013 6.91797 15.9297 7.08984 15.9297C7.29036 15.9297 7.46224 16.0013 7.60547 16.1445C7.7487 16.2878 7.82031 16.4596 7.82031 16.6602C7.82031 16.832 7.7487 16.9896 7.60547 17.1328C7.46224 17.2474 7.29036 17.3047 7.08984 17.3047C6.91797 17.3047 6.76042 17.2474 6.61719 17.1328C6.5026 16.9896 6.44531 16.832 6.44531 16.6602C6.44531 16.4596 6.5026 16.2878 6.61719 16.1445ZM14.3945 16.1445C14.5378 16.0013 14.6953 15.9297 14.8672 15.9297C15.0677 15.9297 15.2253 16.0013 15.3398 16.1445C15.4831 16.2878 15.5547 16.4596 15.5547 16.6602C15.5547 16.832 15.4831 16.9896 15.3398 17.1328C15.2253 17.2474 15.0677 17.3047 14.8672 17.3047C14.6953 17.3047 14.5378 17.2474 14.3945 17.1328C14.2513 16.9896 14.1797 16.832 14.1797 16.6602C14.1797 16.4596 14.2513 16.2878 14.3945 16.1445Z" fill="#4880FF"/>
</svg>
