<svg width="22" height="25" viewBox="0 0 22 25" fill="none" xmlns="http://www.w3.org/2000/svg" id="requests">
<path d="M7.04688 5.35938L8.07812 6.39062L5.32812 9.14062L4.8125 9.57031L4.29688 9.14062L2.92188 7.76562L3.95312 6.73438L4.8125 7.63672L7.04688 5.35938ZM10.3125 6.5625H19.25V7.9375H10.3125V6.5625ZM7.04688 10.8594L8.07812 11.8906L5.32812 14.6406L4.8125 15.0703L4.29688 14.6406L2.92188 13.2656L3.95312 12.2344L4.8125 13.1367L7.04688 10.8594ZM10.3125 12.0625H19.25V13.4375H10.3125V12.0625ZM7.04688 16.3594L8.07812 17.3906L5.32812 20.1406L4.8125 20.5703L4.29688 20.1406L2.92188 18.7656L3.95312 17.7344L4.8125 18.6367L7.04688 16.3594ZM10.3125 17.5625H19.25V18.9375H10.3125V17.5625Z" fill="#4880FF"/>
</svg>
