<svg width="22" height="25" viewBox="0 0 22 25" fill="none" xmlns="http://www.w3.org/2000/svg" id="settings">
<path d="M9.06641 3.8125H9.625H12.375H12.9336L13.0625 4.37109L13.4492 6.39062C14.0794 6.64844 14.6667 7.00651 15.2109 7.46484L17.2305 6.77734L17.7891 6.60547L18.0469 7.07812L19.4219 9.48438L19.6797 9.95703L19.293 10.3438L17.7461 11.6758C17.832 12.1914 17.875 12.5495 17.875 12.75C17.875 12.9505 17.832 13.3086 17.7461 13.8242L19.293 15.1562L19.6797 15.543L19.4219 16.0156L18.0469 18.4219L17.7891 18.8945L17.2305 18.7227L15.2109 18.0352C14.6667 18.4935 14.0794 18.8516 13.4492 19.1094L13.0625 21.1289L12.9336 21.6875H12.375H9.625H9.06641L8.9375 21.1289L8.55078 19.1094C7.92057 18.8516 7.33333 18.4935 6.78906 18.0352L4.76953 18.7227L4.21094 18.8945L3.95312 18.4219L2.57812 16.0156L2.32031 15.543L2.70703 15.1562L4.25391 13.8242C4.16797 13.3086 4.125 12.9505 4.125 12.75C4.125 12.5495 4.16797 12.1914 4.25391 11.6758L2.70703 10.3438L2.32031 9.95703L2.57812 9.48438L3.95312 7.07812L4.21094 6.60547L4.76953 6.77734L6.78906 7.46484C7.33333 7.00651 7.92057 6.64844 8.55078 6.39062L8.9375 4.37109L9.06641 3.8125ZM10.1836 5.1875L9.83984 6.99219L9.75391 7.37891L9.36719 7.50781C8.59375 7.76562 7.90625 8.16667 7.30469 8.71094L6.96094 8.96875L6.61719 8.88281L4.85547 8.28125L4.03906 9.65625L5.41406 10.8594L5.75781 11.1172L5.62891 11.5469C5.54297 11.9193 5.5 12.3203 5.5 12.75C5.5 13.1797 5.54297 13.5807 5.62891 13.9531L5.75781 14.3828L5.41406 14.6406L4.03906 15.8438L4.85547 17.2188L6.61719 16.6172L6.96094 16.5312L7.30469 16.7891C7.90625 17.3333 8.59375 17.7344 9.36719 17.9922L9.75391 18.1211L9.83984 18.5078L10.1836 20.3125H11.8164L12.1602 18.5078L12.2461 18.1211L12.6328 17.9922C13.4062 17.7344 14.0938 17.3333 14.6953 16.7891L15.0391 16.5312L15.3828 16.6172L17.1445 17.2188L17.9609 15.8438L16.5859 14.6406L16.2852 14.3828L16.3711 13.9531C16.457 13.5807 16.5 13.1797 16.5 12.75C16.5 12.3203 16.457 11.9193 16.3711 11.5469L16.2422 11.1172L16.5859 10.8594L17.9609 9.65625L17.1445 8.28125L15.3828 8.88281L15.0391 8.96875L14.6953 8.71094C14.0938 8.16667 13.4062 7.76562 12.6328 7.50781L12.2461 7.37891L12.1602 6.99219L11.8164 5.1875H10.1836ZM8.55078 10.3438C9.23828 9.65625 10.0547 9.3125 11 9.3125C11.9453 9.3125 12.7474 9.65625 13.4062 10.3438C14.0938 11.0026 14.4375 11.8047 14.4375 12.75C14.4375 13.6953 14.0938 14.5117 13.4062 15.1992C12.7474 15.8581 11.9453 16.1875 11 16.1875C10.0547 16.1875 9.23828 15.8581 8.55078 15.1992C7.89193 14.5117 7.5625 13.6953 7.5625 12.75C7.5625 11.8047 7.89193 11.0026 8.55078 10.3438ZM12.4609 11.2891C12.0599 10.888 11.5729 10.6875 11 10.6875C10.4271 10.6875 9.9401 10.888 9.53906 11.2891C9.13802 11.6901 8.9375 12.1771 8.9375 12.75C8.9375 13.3229 9.13802 13.8099 9.53906 14.2109C9.9401 14.612 10.4271 14.8125 11 14.8125C11.5729 14.8125 12.0599 14.612 12.4609 14.2109C12.862 13.8099 13.0625 13.3229 13.0625 12.75C13.0625 12.1771 12.862 11.6901 12.4609 11.2891Z" fill="#4880FF"/>
</svg>
